<svg xmlns="http://www.w3.org/2000/svg" viewBox="0 0 160 160" role="img" aria-hidden="true">
  <rect width="160" height="160" rx="32" fill="#FDF2F8" />
  <path
    d="M40 58c0-6.6 3.8-12.6 9.8-15.4l16.4-7.7c2.4-1.1 5.3-0.2 6.6 2.1l7.2 12 7.2-12c1.3-2.3 4.2-3.2 6.6-2.1l16.4 7.7C116.2 45.4 120 51.4 120 58v30c0 25.4-19.6 42-40 42s-40-16.6-40-42V58z"
    fill="#FBCFE8"
  />
  <circle cx="64" cy="86" r="8" fill="#9D174D" opacity="0.35" />
  <circle cx="96" cy="86" r="8" fill="#9D174D" opacity="0.35" />
  <path d="M72 108c6 6 12 6 16 0" fill="none" stroke="#9D174D" stroke-width="6" stroke-linecap="round" opacity="0.35" />
  <path
    d="M52 118c4 8 12 14 28 14s24-6 28-14"
    fill="none"
    stroke="#F472B6"
    stroke-width="6"
    stroke-linecap="round"
    opacity="0.35"
  />
</svg>
