<svg xmlns="http://www.w3.org/2000/svg" viewBox="0 0 160 160" role="img" aria-hidden="true">
  <rect width="160" height="160" rx="32" fill="#EEF2FF" />
  <path
    d="M56 44c-8.8 0-16 7.2-16 16v10c0 4.4 3.6 8 8 8h4v22l-8 12c-1.6 2.4-0.2 5.6 2.6 6.2l15.4 3.2c2.3 0.5 4.4-1.3 4.4-3.6v-6.4h32v6.4c0 2.3 2.1 4.1 4.4 3.6l15.4-3.2c2.8-0.6 4.2-3.8 2.6-6.2l-8-12V78h4c4.4 0 8-3.6 8-8V60c0-8.8-7.2-16-16-16h-8l-6.5-11.2c-1.5-2.6-4.6-3.6-7.4-2.3L80 36.5l-10.1-5.9c-2.8-1.6-6-0.6-7.5 2.3L56 44z"
    fill="#C7D2FE"
  />
  <circle cx="70" cy="80" r="8" fill="#1E3A8A" opacity="0.35" />
  <circle cx="90" cy="80" r="8" fill="#1E3A8A" opacity="0.35" />
  <path
    d="M64 106c6 8 18 12 32 0"
    fill="none"
    stroke="#1E3A8A"
    stroke-width="6"
    stroke-linecap="round"
    stroke-linejoin="round"
    opacity="0.35"
  />
</svg>
